<svg class="svg" xmlns="http://www.w3.org/2000/svg">
		<symbol id="align-center-solid-full-symbol" viewBox="0 0 640 640">
        <!--!Font Awesome Free 7.0.0 by @fontawesome - https://fontawesome.com License - https://fontawesome.com/license/free Copyright 2025 Fonticons, Inc.--><path fill="currentColor" d="M448 128C448 110.3 433.7 96 416 96L224 96C206.3 96 192 110.3 192 128C192 145.7 206.3 160 224 160L416 160C433.7 160 448 145.7 448 128zM544 256C544 238.3 529.7 224 512 224L128 224C110.3 224 96 238.3 96 256C96 273.7 110.3 288 128 288L512 288C529.7 288 544 273.7 544 256zM96 512C96 529.7 110.3 544 128 544L512 544C529.7 544 544 529.7 544 512C544 494.3 529.7 480 512 480L128 480C110.3 480 96 494.3 96 512zM448 384C448 366.3 433.7 352 416 352L224 352C206.3 352 192 366.3 192 384C192 401.7 206.3 416 224 416L416 416C433.7 416 448 401.7 448 384z"></path>
    </symbol>
	
		<symbol id="align-justify-solid-full-symbol" viewBox="0 0 640 640">
        <!--!Font Awesome Free 7.0.0 by @fontawesome - https://fontawesome.com License - https://fontawesome.com/license/free Copyright 2025 Fonticons, Inc.--><path fill="currentColor" d="M544 128C544 110.3 529.7 96 512 96L128 96C110.3 96 96 110.3 96 128C96 145.7 110.3 160 128 160L512 160C529.7 160 544 145.7 544 128zM544 384C544 366.3 529.7 352 512 352L128 352C110.3 352 96 366.3 96 384C96 401.7 110.3 416 128 416L512 416C529.7 416 544 401.7 544 384zM96 256C96 273.7 110.3 288 128 288L512 288C529.7 288 544 273.7 544 256C544 238.3 529.7 224 512 224L128 224C110.3 224 96 238.3 96 256zM544 512C544 494.3 529.7 480 512 480L128 480C110.3 480 96 494.3 96 512C96 529.7 110.3 544 128 544L512 544C529.7 544 544 529.7 544 512z"></path>
    </symbol>
	
		<symbol id="align-left-solid-full-symbol" viewBox="0 0 640 640">
        <!--!Font Awesome Free 7.0.0 by @fontawesome - https://fontawesome.com License - https://fontawesome.com/license/free Copyright 2025 Fonticons, Inc.--><path fill="currentColor" d="M384 128C384 145.7 369.7 160 352 160L128 160C110.3 160 96 145.7 96 128C96 110.3 110.3 96 128 96L352 96C369.7 96 384 110.3 384 128zM384 384C384 401.7 369.7 416 352 416L128 416C110.3 416 96 401.7 96 384C96 366.3 110.3 352 128 352L352 352C369.7 352 384 366.3 384 384zM96 256C96 238.3 110.3 224 128 224L512 224C529.7 224 544 238.3 544 256C544 273.7 529.7 288 512 288L128 288C110.3 288 96 273.7 96 256zM544 512C544 529.7 529.7 544 512 544L128 544C110.3 544 96 529.7 96 512C96 494.3 110.3 480 128 480L512 480C529.7 480 544 494.3 544 512z"></path>
    </symbol>
	
		<symbol id="align-right-solid-full-symbol" viewBox="0 0 640 640">
        <!--!Font Awesome Free 7.0.0 by @fontawesome - https://fontawesome.com License - https://fontawesome.com/license/free Copyright 2025 Fonticons, Inc.--><path fill="currentColor" d="M544 128C544 145.7 529.7 160 512 160L288 160C270.3 160 256 145.7 256 128C256 110.3 270.3 96 288 96L512 96C529.7 96 544 110.3 544 128zM544 384C544 401.7 529.7 416 512 416L288 416C270.3 416 256 401.7 256 384C256 366.3 270.3 352 288 352L512 352C529.7 352 544 366.3 544 384zM96 256C96 238.3 110.3 224 128 224L512 224C529.7 224 544 238.3 544 256C544 273.7 529.7 288 512 288L128 288C110.3 288 96 273.7 96 256zM544 512C544 529.7 529.7 544 512 544L128 544C110.3 544 96 529.7 96 512C96 494.3 110.3 480 128 480L512 480C529.7 480 544 494.3 544 512z"></path>
    </symbol>
	
		<symbol id="align-vertical-symbol" viewBox="0 0 21 21">
        

<g fill="none" fill-rule="evenodd" stroke="#000000" stroke-linecap="round" stroke-linejoin="round" transform="translate(3 1)">

<path d="m4.5 4.5 3 3 3-3" style="" fill="#fff"></path>

<path d="m7.5.5v7" style="" fill="#fff"></path>

<path d="m4.5 14.5 3-3 3 3" style="" fill="#fff"></path>

<path d="m7.5 11.5v7" style="" fill="#fff"></path>

<path d="m.5 9.5h14" style="" fill="#fff"></path>

</g>


    </symbol>
	
		<symbol id="align_justify_center-symbol" viewBox="0 -960 960 960">
        <path d="M460-120v-720h40v720h-40Zm129.23-180v-360h80v360h-80Zm-298.46 0v-360h80v360h-80Z"></path>
    </symbol>
	
		<symbol id="align_justify_flex_end-symbol" viewBox="0 -960 960 960">
        <path d="M800-120v-720h40v720h-40ZM580-300v-360h80v360h-80Zm-240 0v-360h80v360h-80Z"></path>
    </symbol>
	
		<symbol id="align_justify_flex_start-symbol" viewBox="0 -960 960 960">
        <path d="M120-120v-720h40v720h-40Zm420-180v-360h80v360h-80Zm-240 0v-360h80v360h-80Z"></path>
    </symbol>
	
		<symbol id="align_vertical_bottom-symbol" viewBox="0 -960 960 960">
        <path d="M120-140v-40h720v40H120Zm187.69-143.08v-537.69h81.54v537.69h-81.54Zm263.08 0v-297.69h81.54v297.69h-81.54Z"></path>
    </symbol>
	
		<symbol id="align_vertical_center-symbol" viewBox="0 -960 960 960">
        <path d="M303.85-160v-300H120v-40h183.85v-300h81.53v300h189.24v-180h81.53v180H840v40H656.15v180h-81.53v-180H385.38v300h-81.53Z"></path>
    </symbol>
	
		<symbol id="align_vertical_top-symbol" viewBox="0 -960 960 960">
        <path d="M307.69-140v-537.69h81.54V-140h-81.54Zm263.08-240v-297.69h81.54V-380h-81.54ZM120-780.77v-40h720v40H120Z"></path>
    </symbol>
	
		<symbol id="all-border-symbol" viewBox="0 0 24 24">
        
  <!-- Outer rectangle -->
  <rect x="2" y="2" width="20" height="20" fill="none" stroke="currentColor" stroke-width="1"></rect>

  <!-- Inner rectangle (2px smaller on each side) -->
  <rect x="5" y="5" width="14" height="14" fill="none" stroke="currentColor" stroke-width="1"></rect>

    </symbol>
	
		<symbol id="angle-down-solid-symbol" viewBox="0 0 448 512">
        <!--!Font Awesome Free 6.7.2 by @fontawesome - https://fontawesome.com License - https://fontawesome.com/license/free Copyright 2025 Fonticons, Inc.--><path d="M201.4 374.6c12.5 12.5 32.8 12.5 45.3 0l160-160c12.5-12.5 12.5-32.8 0-45.3s-32.8-12.5-45.3 0L224 306.7 86.6 169.4c-12.5-12.5-32.8-12.5-45.3 0s-12.5 32.8 0 45.3l160 160z"></path>
    </symbol>
	
		<symbol id="angle-right-solid-full-symbol" viewBox="0 0 640 640">
        <!--!Font Awesome Free 7.0.0 by @fontawesome - https://fontawesome.com License - https://fontawesome.com/license/free Copyright 2025 Fonticons, Inc.--><path d="M439.1 297.4C451.6 309.9 451.6 330.2 439.1 342.7L279.1 502.7C266.6 515.2 246.3 515.2 233.8 502.7C221.3 490.2 221.3 469.9 233.8 457.4L371.2 320L233.9 182.6C221.4 170.1 221.4 149.8 233.9 137.3C246.4 124.8 266.7 124.8 279.2 137.3L439.2 297.3z"></path>
    </symbol>
	
		<symbol id="arrows_output-symbol" viewBox="0 -960 960 960">
        <path d="M120-120v-240h80v104l124-124 56 56-124 124h104v80H120Zm480 0v-80h104L580-324l56-56 124 124v-104h80v240H600ZM324-580 200-704v104h-80v-240h240v80H256l124 124-56 56Zm312 0-56-56 124-124H600v-80h240v240h-80v-104L636-580ZM480-400q-33 0-56.5-23.5T400-480q0-33 23.5-56.5T480-560q33 0 56.5 23.5T560-480q0 33-23.5 56.5T480-400Z"></path>
    </symbol>
	
		<symbol id="aspect_ratio-symbol" viewBox="0 -960 960 960">
        <path d="M560-280h200v-200h-80v120H560v80ZM200-480h80v-120h120v-80H200v200Zm-40 320q-33 0-56.5-23.5T80-240v-480q0-33 23.5-56.5T160-800h640q33 0 56.5 23.5T880-720v480q0 33-23.5 56.5T800-160H160Zm0-80h640v-480H160v480Zm0 0v-480 480Z"></path>
    </symbol>
	
		<symbol id="bars-solid-full-symbol" viewBox="0 0 640 640">
        <!--!Font Awesome Free 7.0.0 by @fontawesome - https://fontawesome.com License - https://fontawesome.com/license/free Copyright 2025 Fonticons, Inc.--><path fill="currentColor" d="M96 160C96 142.3 110.3 128 128 128L512 128C529.7 128 544 142.3 544 160C544 177.7 529.7 192 512 192L128 192C110.3 192 96 177.7 96 160zM96 320C96 302.3 110.3 288 128 288L512 288C529.7 288 544 302.3 544 320C544 337.7 529.7 352 512 352L128 352C110.3 352 96 337.7 96 320zM544 480C544 497.7 529.7 512 512 512L128 512C110.3 512 96 497.7 96 480C96 462.3 110.3 448 128 448L512 448C529.7 448 544 462.3 544 480z"></path>
    </symbol>
	
		<symbol id="blur_on-symbol" viewBox="0 -960 960 960">
        <path fill="currentColor" d="M140-382q-8 0-14-5.7t-6-13.3q0-8 6-14t14-6q8 0 13.5 6t5.5 14q0 8-5.7 13.5T140-382Zm0-157q-8 0-14-6t-6-14q0-8 6-13.5t14-5.5q8 0 13.5 5.7T159-559q0 8-5.7 14t-13.3 6Zm104 327.85q-14.38 0-23.62-9.45-9.23-9.44-9.23-23.4 0-14.38 9.45-24.12 9.44-9.73 23.4-9.73 14.38 0 24.12 9.73 9.73 9.74 9.73 24.12t-9.73 23.62q-9.74 9.23-24.12 9.23Zm0-157q-14.38 0-23.62-9.45-9.23-9.44-9.23-23.4 0-14.38 9.45-24.12 9.44-9.73 23.4-9.73 14.38 0 24.12 9.73 9.73 9.74 9.73 24.12t-9.73 23.62q-9.74 9.23-24.12 9.23Zm0-157q-14.38 0-23.62-9.73-9.23-9.74-9.23-24.12t9.45-23.62q9.44-9.23 23.4-9.23 14.38 0 24.12 9.45 9.73 9.44 9.73 23.4 0 14.38-9.73 24.12-9.74 9.73-24.12 9.73Zm0-157q-14.38 0-23.62-9.73-9.23-9.74-9.23-24.12t9.45-23.62q9.44-9.23 23.4-9.23 14.38 0 24.12 9.45 9.73 9.44 9.73 23.4 0 14.38-9.73 24.12-9.74 9.73-24.12 9.73Zm157.24 320.84q-16.86 0-28.39-11.59-11.54-11.59-11.54-28.15 0-16.57 11.59-28.6 11.59-12.04 28.15-12.04 16.57 0 28.6 11.8 12.04 11.79 12.04 28.65t-11.8 28.39q-11.79 11.54-28.65 11.54Zm0-157q-16.86 0-28.39-11.8-11.54-11.79-11.54-28.65t11.59-28.39q11.59-11.54 28.15-11.54 16.57 0 28.6 11.59 12.04 11.59 12.04 28.15 0 16.57-11.8 28.6-11.79 12.04-28.65 12.04ZM401-211.15q-14.38 0-23.62-9.45-9.23-9.44-9.23-23.4 0-14.38 9.45-24.12 9.44-9.73 23.4-9.73 14.38 0 24.12 9.73 9.73 9.74 9.73 24.12t-9.73 23.62q-9.74 9.23-24.12 9.23Zm0-471q-14.38 0-23.62-9.73-9.23-9.74-9.23-24.12t9.45-23.62q9.44-9.23 23.4-9.23 14.38 0 24.12 9.45 9.73 9.44 9.73 23.4 0 14.38-9.73 24.12-9.74 9.73-24.12 9.73ZM401-120q-8 0-13.5-6t-5.5-14q0-8 5.7-13.5T401-159q8 0 14 5.7t6 13.3q0 8-6 14t-14 6Zm0-681q-8 0-13.5-5.7T382-820q0-8 5.7-14t13.3-6q8 0 14 6t6 14q0 8-6 13.5t-14 5.5Zm157.95 439.69q-16.57 0-28.6-11.59-12.04-11.59-12.04-28.15 0-16.57 11.8-28.6 11.79-12.04 28.65-12.04t28.39 11.8q11.54 11.79 11.54 28.65t-11.59 28.39q-11.59 11.54-28.15 11.54Zm0-157q-16.57 0-28.6-11.8-12.04-11.79-12.04-28.65t11.8-28.39q11.79-11.54 28.65-11.54t28.39 11.59q11.54 11.59 11.54 28.15 0 16.57-11.59 28.6-11.59 12.04-28.15 12.04Zm.05 307.16q-14.38 0-24.12-9.45-9.73-9.44-9.73-23.4 0-14.38 9.73-24.12 9.74-9.73 24.12-9.73t23.62 9.73q9.23 9.74 9.23 24.12t-9.45 23.62q-9.44 9.23-23.4 9.23Zm0-471q-14.38 0-24.12-9.73-9.73-9.74-9.73-24.12t9.73-23.62q9.74-9.23 24.12-9.23t23.62 9.45q9.23 9.44 9.23 23.4 0 14.38-9.45 24.12-9.44 9.73-23.4 9.73ZM559-120q-8 0-14-6t-6-14q0-8 6-13.5t14-5.5q8 0 13.5 5.7T578-140q0 8-5.7 14t-13.3 6Zm0-681q-8 0-14-5.7t-6-13.3q0-8 6-14t14-6q8 0 13.5 6t5.5 14q0 8-5.7 13.5T559-801Zm157 589.85q-14.38 0-24.12-9.45-9.73-9.44-9.73-23.4 0-14.38 9.73-24.12 9.74-9.73 24.12-9.73t23.62 9.73q9.23 9.74 9.23 24.12t-9.45 23.62q-9.44 9.23-23.4 9.23Zm0-157q-14.38 0-24.12-9.45-9.73-9.44-9.73-23.4 0-14.38 9.73-24.12 9.74-9.73 24.12-9.73t23.62 9.73q9.23 9.74 9.23 24.12t-9.45 23.62q-9.44 9.23-23.4 9.23Zm0-157q-14.38 0-24.12-9.73-9.73-9.74-9.73-24.12t9.73-23.62q9.74-9.23 24.12-9.23t23.62 9.45q9.23 9.44 9.23 23.4 0 14.38-9.45 24.12-9.44 9.73-23.4 9.73Zm0-157q-14.38 0-24.12-9.73-9.73-9.74-9.73-24.12t9.73-23.62q9.74-9.23 24.12-9.23t23.62 9.45q9.23 9.44 9.23 23.4 0 14.38-9.45 24.12-9.44 9.73-23.4 9.73ZM820-382q-8 0-13.5-5.7T801-401q0-8 5.7-14t13.3-6q8 0 14 6t6 14q0 8-6 13.5t-14 5.5Zm0-157q-8 0-13.5-6t-5.5-14q0-8 5.7-13.5T820-578q8 0 14 5.7t6 13.3q0 8-6 14t-14 6Z"></path>
    </symbol>
	
		<symbol id="bring-to-front-symbol" viewBox="0 0 24 24">
        <rect x="8" y="8" width="8" height="8" rx="2"></rect><path d="M4 10a2 2 0 0 1-2-2V4a2 2 0 0 1 2-2h4a2 2 0 0 1 2 2"></path><path d="M14 20a2 2 0 0 0 2 2h4a2 2 0 0 0 2-2v-4a2 2 0 0 0-2-2"></path>
    </symbol>
	
		<symbol id="check-solid-full-symbol" viewBox="0 0 640 640">
        <!--!Font Awesome Free 7.1.0 by @fontawesome - https://fontawesome.com License - https://fontawesome.com/license/free Copyright 2026 Fonticons, Inc.--><path fill="currentColor" d="M530.8 134.1C545.1 144.5 548.3 164.5 537.9 178.8L281.9 530.8C276.4 538.4 267.9 543.1 258.5 543.9C249.1 544.7 240 541.2 233.4 534.6L105.4 406.6C92.9 394.1 92.9 373.8 105.4 361.3C117.9 348.8 138.2 348.8 150.7 361.3L252.2 462.8L486.2 141.1C496.6 126.8 516.6 123.6 530.9 134z"></path>
    </symbol>
	
		<symbol id="circle-notch-solid-full-symbol" viewBox="0 0 640 640">
        <!--!Font Awesome Free 7.2.0 by @fontawesome - https://fontawesome.com License - https://fontawesome.com/license/free Copyright 2026 Fonticons, Inc.--><path fill="currentColor" d="M286.7 96.1C291.7 113 282.1 130.9 265.2 135.9C185.9 159.5 128.1 233 128.1 320C128.1 426 214.1 512 320.1 512C426.1 512 512.1 426 512.1 320C512.1 233.1 454.3 159.6 375 135.9C358.1 130.9 348.4 113 353.5 96.1C358.6 79.2 376.4 69.5 393.3 74.6C498.9 106.1 576 204 576 320C576 461.4 461.4 576 320 576C178.6 576 64 461.4 64 320C64 204 141.1 106.1 246.9 74.6C263.8 69.6 281.7 79.2 286.7 96.1z"></path>
    </symbol>
	
		<symbol id="clone-solid-full-symbol" viewBox="0 0 640 640">
        <!--!Font Awesome Free 7.0.0 by @fontawesome - https://fontawesome.com License - https://fontawesome.com/license/free Copyright 2025 Fonticons, Inc.--><path fill="currentColor" d="M352 512L128 512L128 288L176 288L176 224L128 224C92.7 224 64 252.7 64 288L64 512C64 547.3 92.7 576 128 576L352 576C387.3 576 416 547.3 416 512L416 464L352 464L352 512zM288 416L512 416C547.3 416 576 387.3 576 352L576 128C576 92.7 547.3 64 512 64L288 64C252.7 64 224 92.7 224 128L224 352C224 387.3 252.7 416 288 416z"></path>
    </symbol>
	
		<symbol id="code-solid-full-symbol" viewBox="0 0 640 640">
        <!--!Font Awesome Free 7.0.0 by @fontawesome - https://fontawesome.com License - https://fontawesome.com/license/free Copyright 2025 Fonticons, Inc.--><path d="M392.8 65.2C375.8 60.3 358.1 70.2 353.2 87.2L225.2 535.2C220.3 552.2 230.2 569.9 247.2 574.8C264.2 579.7 281.9 569.8 286.8 552.8L414.8 104.8C419.7 87.8 409.8 70.1 392.8 65.2zM457.4 201.3C444.9 213.8 444.9 234.1 457.4 246.6L530.8 320L457.4 393.4C444.9 405.9 444.9 426.2 457.4 438.7C469.9 451.2 490.2 451.2 502.7 438.7L598.7 342.7C611.2 330.2 611.2 309.9 598.7 297.4L502.7 201.4C490.2 188.9 469.9 188.9 457.4 201.4zM182.7 201.3C170.2 188.8 149.9 188.8 137.4 201.3L41.4 297.3C28.9 309.8 28.9 330.1 41.4 342.6L137.4 438.6C149.9 451.1 170.2 451.1 182.7 438.6C195.2 426.1 195.2 405.8 182.7 393.3L109.3 320L182.6 246.6C195.1 234.1 195.1 213.8 182.6 201.3z" fill="currentColor"></path>
    </symbol>
	
		<symbol id="contrast-symbol" viewBox="0 -960 960 960">
        <path fill="currentColor" d="M480.41-136q-70.95 0-133.69-26.84-62.73-26.84-109.86-73.92t-73.99-109.72Q136-409.11 136-480.32q0-71.22 26.84-133.46 26.84-62.23 73.92-109.36t109.72-73.99Q409.11-824 480.32-824q71.22 0 133.46 26.84 62.23 26.84 109.36 73.92t73.99 109.48Q824-551.36 824-480.41q0 70.95-26.84 133.69-26.84 62.73-73.92 109.86t-109.48 73.99Q551.36-136 480.41-136ZM496-167.69q121.62-7.08 208.81-95.57T792-480q0-128.25-86.42-215.97-86.43-87.72-209.58-96.34v624.62Z"></path>
    </symbol>
	
		<symbol id="conversion_path-symbol" viewBox="0 -960 960 960">
        <path d="M760-140q-35.92 0-63.46-22.5T662.38-220H440q-58.31 0-99.15-40.85Q300-301.69 300-360t40.85-99.15Q381.69-500 440-500h80q41.25 0 70.62-29.42Q620-558.84 620-600.15t-29.38-70.58Q561.25-700 520-700H297.62q-6.85 35-34.27 57.5Q235.92-620 200-620q-41.67 0-70.83-29.14Q100-678.28 100-719.91q0-41.63 29.17-70.86Q158.33-820 200-820q35.92 0 63.35 22.5 27.42 22.5 34.27 57.5H520q58.31 0 99.15 40.85Q660-658.31 660-600t-40.85 99.15Q578.31-460 520-460h-80q-41.25 0-70.62 29.42Q340-401.16 340-359.85t29.38 70.58Q398.75-260 440-260h222.38q6.85-35 34.27-57.5Q724.08-340 760-340q41.67 0 70.83 29.14Q860-281.72 860-240.09q0 41.63-29.17 70.86Q801.67-140 760-140ZM200-660q24.69 0 42.35-17.65Q260-695.31 260-720t-17.65-42.35Q224.69-780 200-780t-42.35 17.65Q140-744.69 140-720t17.65 42.35Q175.31-660 200-660Z"></path>
    </symbol>
	
		<symbol id="copy-symbol" viewBox="0 0 24 24">
        <rect x="9" y="9" width="13" height="13" rx="2" ry="2"></rect><path d="M5 15H4a2 2 0 0 1-2-2V4a2 2 0 0 1 2-2h9a2 2 0 0 1 2 2v1"></path>
    </symbol>
	
		<symbol id="crop_free-symbol" viewBox="0 -960 960 960">
        <path fill="currentColor" d="M224.62-160q-27.62 0-46.12-18.5Q160-197 160-224.62V-360h40v135.38q0 9.24 7.69 16.93 7.69 7.69 16.93 7.69H360v40H224.62ZM600-160v-40h135.38q9.24 0 16.93-7.69 7.69-7.69 7.69-16.93V-360h40v135.38q0 27.62-18.5 46.12Q763-160 735.38-160H600ZM160-600v-135.38q0-27.62 18.5-46.12Q197-800 224.62-800H360v40H224.62q-9.24 0-16.93 7.69-7.69 7.69-7.69 16.93V-600h-40Zm600 0v-135.38q0-9.24-7.69-16.93-7.69-7.69-16.93-7.69H600v-40h135.38q27.62 0 46.12 18.5Q800-763 800-735.38V-600h-40Z"></path>
    </symbol>
	
		<symbol id="ellipsis-solid-full-symbol" viewBox="0 0 640 640">
        <!--!Font Awesome Free 7.1.0 by @fontawesome - https://fontawesome.com License - https://fontawesome.com/license/free Copyright 2026 Fonticons, Inc.--><path fill="currentColor" d="M96 320C96 289.1 121.1 264 152 264C182.9 264 208 289.1 208 320C208 350.9 182.9 376 152 376C121.1 376 96 350.9 96 320zM264 320C264 289.1 289.1 264 320 264C350.9 264 376 289.1 376 320C376 350.9 350.9 376 320 376C289.1 376 264 350.9 264 320zM488 264C518.9 264 544 289.1 544 320C544 350.9 518.9 376 488 376C457.1 376 432 350.9 432 320C432 289.1 457.1 264 488 264z"></path>
    </symbol>
	
		<symbol id="eye-off-symbol" viewBox="0 0 24 24">
        <path d="M17.94 17.94A10.07 10.07 0 0 1 12 20c-7 0-11-8-11-8a18.45 18.45 0 0 1 5.06-5.94M9.9 4.24A9.12 9.12 0 0 1 12 4c7 0 11 8 11 8a18.5 18.5 0 0 1-2.16 3.19m-6.72-1.07a3 3 0 1 1-4.24-4.24"></path><line x1="1" y1="1" x2="23" y2="23"></line>
    </symbol>
	
		<symbol id="eye-symbol" viewBox="0 0 24 24">
        <path d="M1 12s4-8 11-8 11 8 11 8-4 8-11 8-11-8-11-8z"></path><circle cx="12" cy="12" r="3"></circle>
    </symbol>
	
		<symbol id="file-symbol" viewBox="0 0 24 24">
        <path d="M13 2H6a2 2 0 0 0-2 2v16a2 2 0 0 0 2 2h12a2 2 0 0 0 2-2V9z"></path><polyline points="13 2 13 9 20 9"></polyline>
    </symbol>
	
		<symbol id="filter_vintage-symbol" viewBox="0 -960 960 960">
        <path fill="currentColor" d="M479.23-177.54q-46.77 0-81.08-34.34-34.3-34.35-30-76.27-37.92 26.38-82 12.92-44.07-13.46-71.23-55.85-23.61-41.07-8.61-85.07 15-44 56.46-64.03-43-19.44-58.12-65.86-15.11-46.42 10.81-88t71.39-54.65q45.46-13.08 81.84 15.3-5.31-43.46 29.5-77.03Q433-784 480.27-784q47.27 0 81.08 33.58 33.8 33.57 30.5 77.03 34.84-26.38 81.57-13.15 46.73 13.23 70.12 53 25.92 39.54 11.04 87.12-14.89 47.57-57.35 66.42 42.46 20.85 58.58 66.62 16.11 45.76-12.81 82.3-27.15 39.31-71.61 53.81-44.47 14.5-80.08-10.88 4.31 41.92-30.5 76.27-34.81 34.34-81.58 34.34Zm.33-32q45.67 0 69.17-39.5t.5-79.5l-32-55q-9 4.16-18.18 6.23-9.18 2.08-19.27 2.08-9.18 0-18.43-1.89-9.25-1.88-20.12-5.65l-31 53.23q-22 41 .83 80.5 22.84 39.5 68.5 39.5ZM244.24-344q22.99 37.46 68.61 37.46 45.61 0 69.77-37.46l31.76-53.77q-7.76-8-13.26-14.76t-10.5-14.35q-5-7.58-8.12-17.47-3.12-9.88-5.83-19.65h-63.05q-46.48 0-70.74 41.77-24.26 41.77 1.36 78.23Zm333.14 0q24.24 35.69 69.92 36.08 45.67.38 68.46-36.08 25.62-36.46 1.61-78.23Q693.35-464 647.38-464h-64.11q-2.42 10.77-5.27 20.15-2.85 9.39-7.85 16.6-5 8.02-11.11 15.21-6.11 7.19-13.42 14.27L577.38-344ZM480-480Zm-102.85-16q2.43-8.74 5.06-17.98 2.64-9.25 7.8-17.25 5.17-8 10.39-16 5.22-8 13.98-15L382.62-616q-25-38.23-70.3-38.62-45.29-.38-67.7 38.62-22.24 38.46.65 79.23Q268.16-496 312.62-496h64.53Zm269.23 0q46.48 0 70.36-41.77 23.88-41.77-1.36-78.23-22.23-38-68.11-38.12-45.89-.11-69.89 37.12l-31.76 54.77q8.87 7 14.59 15 5.71 8 11.21 16 5.5 8 7.72 16.93 2.23 8.94 3.71 18.3h63.53Zm-202.84-81.23q10.77-3.54 19.73-5.54t18.34-2q9.39 0 18.14 2.39 8.75 2.38 17.48 5.15L549.77-632q23.77-41 .55-80.5T480.43-752q-46.66 0-69.66 40.05t0 78.95l32.77 55.77Zm0 0q10.77-3.54 19.73-5.54t18.34-2q9.39 0 18.14 2.39 8.75 2.38 17.48 5.15-8.73-2.77-17.67-5.15-8.93-2.39-17.97-2.39-9.38 0-18.33 2-8.95 2-19.72 5.54Zm-52.92 150.35q-5-7.58-8.12-17.47-3.12-9.88-5.35-19.65 2.23 9.77 5.35 19.65 3.12 9.89 8.12 17.1 5 8.02 10.5 14.75t13.26 14.73q-7.76-8-13.26-14.76t-10.5-14.35ZM377.15-496q2.43-8.74 5.06-17.98 2.64-9.25 7.8-17.25 5.17-8 10.39-16 5.22-8 13.98-15-8.47 7-13.85 15-5.39 8-10.68 16-5 8-7.64 17.25-2.63 9.24-5.06 17.98Zm102.63 120.77q-9.18 0-18.43-1.89-9.25-1.88-20.12-5.65 10.87 3.77 20.31 5.65 9.45 1.89 18.44 1.89 9.89 0 19.07-2.08 9.18-2.07 18.18-6.23-9 4.16-18.18 6.23-9.18 2.08-19.27 2.08Zm65.84-22.54q7.31-7.08 13.32-14.3 6.01-7.22 11.21-14.81 5-7.58 7.85-16.97 2.85-9.38 4.85-20.15-2 10.77-4.85 20.15-2.85 9.39-7.85 16.6-5 8.02-11.11 15.21-6.11 7.19-13.42 14.27ZM582.85-496q-1.48-9.36-3.71-18.3-2.22-8.93-7.72-16.93t-11.21-16q-5.72-8-14.59-15 8.87 7 14.59 15 5.71 8 11.21 16 5.5 8 7.72 16.93 2.23 8.94 3.71 18.3ZM480-389q37.54 0 64.27-26.73Q571-442.46 571-480q0-37.54-26.73-64.27Q517.54-571 480-571q-37.54 0-64.27 26.73Q389-517.54 389-480q0 37.54 26.73 64.27Q442.46-389 480-389Z"></path>
    </symbol>
	
		<symbol id="gear-solid-full-symbol" viewBox="0 0 640 640">
        <!--!Font Awesome Free 7.0.0 by @fontawesome - https://fontawesome.com License - https://fontawesome.com/license/free Copyright 2025 Fonticons, Inc.--><path d="M259.1 73.5C262.1 58.7 275.2 48 290.4 48L350.2 48C365.4 48 378.5 58.7 381.5 73.5L396 143.5C410.1 149.5 423.3 157.2 435.3 166.3L503.1 143.8C517.5 139 533.3 145 540.9 158.2L570.8 210C578.4 223.2 575.7 239.8 564.3 249.9L511 297.3C511.9 304.7 512.3 312.3 512.3 320C512.3 327.7 511.8 335.3 511 342.7L564.4 390.2C575.8 400.3 578.4 417 570.9 430.1L541 481.9C533.4 495 517.6 501.1 503.2 496.3L435.4 473.8C423.3 482.9 410.1 490.5 396.1 496.6L381.7 566.5C378.6 581.4 365.5 592 350.4 592L290.6 592C275.4 592 262.3 581.3 259.3 566.5L244.9 496.6C230.8 490.6 217.7 482.9 205.6 473.8L137.5 496.3C123.1 501.1 107.3 495.1 99.7 481.9L69.8 430.1C62.2 416.9 64.9 400.3 76.3 390.2L129.7 342.7C128.8 335.3 128.4 327.7 128.4 320C128.4 312.3 128.9 304.7 129.7 297.3L76.3 249.8C64.9 239.7 62.3 223 69.8 209.9L99.7 158.1C107.3 144.9 123.1 138.9 137.5 143.7L205.3 166.2C217.4 157.1 230.6 149.5 244.6 143.4L259.1 73.5zM320.3 400C364.5 399.8 400.2 363.9 400 319.7C399.8 275.5 363.9 239.8 319.7 240C275.5 240.2 239.8 276.1 240 320.3C240.2 364.5 276.1 400.2 320.3 400z"></path>
    </symbol>
	
		<symbol id="grip-lines-solid-full-symbol" viewBox="0 0 640 640">
        <!--!Font Awesome Free 7.2.0 by @fontawesome - https://fontawesome.com License - https://fontawesome.com/license/free Copyright 2026 Fonticons, Inc.--><path shape-rendering="crispEdges" fill="currentColor" d="M128 352C110.3 352 96 366.3 96 384C96 401.7 110.3 416 128 416L512 416C529.7 416 544 401.7 544 384C544 366.3 529.7 352 512 352L128 352zM128 224C110.3 224 96 238.3 96 256C96 273.7 110.3 288 128 288L512 288C529.7 288 544 273.7 544 256C544 238.3 529.7 224 512 224L128 224z"></path>
    </symbol>
	
		<symbol id="hand-solid-full-symbol" viewBox="0 0 640 640">
        <!--!Font Awesome Free 7.0.0 by @fontawesome - https://fontawesome.com License - https://fontawesome.com/license/free Copyright 2025 Fonticons, Inc.--><path d="M352 96C352 78.3 337.7 64 320 64C302.3 64 288 78.3 288 96L288 304C288 312.8 280.8 320 272 320C263.2 320 256 312.8 256 304L256 128C256 110.3 241.7 96 224 96C206.3 96 192 110.3 192 128L192 400C192 401.5 192 403.1 192.1 404.6L131.6 347C115.6 331.8 90.3 332.4 75 348.4C59.7 364.4 60.4 389.7 76.4 405L188.8 512C231.9 553.1 289.2 576 348.8 576L368 576C465.2 576 544 497.2 544 400L544 192C544 174.3 529.7 160 512 160C494.3 160 480 174.3 480 192L480 304C480 312.8 472.8 320 464 320C455.2 320 448 312.8 448 304L448 128C448 110.3 433.7 96 416 96C398.3 96 384 110.3 384 128L384 304C384 312.8 376.8 320 368 320C359.2 320 352 312.8 352 304L352 96z" fill="currentColor"></path>
    </symbol>
	
		<symbol id="hide-symbol" viewBox="0 -960 960 960">
        <path d="m177-120-57-57 184-183H200v-80h240v240h-80v-104L177-120Zm343-400v-240h80v104l183-184 57 57-184 183h104v80H520Z"></path>
    </symbol>
	
		<symbol id="image-symbol" viewBox="0 0 24 24">
        <rect x="3" y="3" width="18" height="18" rx="2" ry="2"></rect><circle cx="8.5" cy="8.5" r="1.5"></circle><polyline points="21 15 16 10 5 21"></polyline>
    </symbol>
	
		<symbol id="image_placeholder-symbol" viewBox="0 0 24 24">
        <rect x="3" y="3" width="18" height="18" rx="2" ry="2"></rect><circle cx="8.5" cy="8.5" r="1.5"></circle><polyline points="21 15 16 10 5 21"></polyline>
    </symbol>
	
		<symbol id="invert_colors-symbol" viewBox="0 -960 960 960">
        <path fill="currentColor" d="M480-184q-108.85 0-184.42-74.19Q220-332.38 220-439.23q0-53.08 19.81-97.89 19.81-44.8 51.88-80.19L480-808.62l189.31 192.31q31.07 35.39 50.88 80.85Q740-490 740-439.23q0 106.85-75.58 181.04Q588.85-184 480-184Zm0-32v-545L315-594q-31 32-47 71.38-16 39.39-16 83.39 0 93 66.5 158.11Q385-216 480-216Z"></path>
    </symbol>
	
		<symbol id="invert_colors_off-symbol" viewBox="0 -960 960 960">
        <path fill="currentColor" d="m720-342.77-240-240v-179L391-671l-23.31-23.31L480-808.62l189.31 192.54q34.84 34.08 52.77 81.58Q740-487 740-438.46q0 21.46-4.81 47.04-4.81 25.57-15.19 48.65Zm48 197.39L658.54-255.85q-37.23 37.47-82.73 54.66Q530.31-184 480-184q-108.85 0-184.42-73.31Q220-330.62 220-438.46q0-46.46 17.04-93.5t56.81-86.58L173.08-740.31l23.3-23.31 594.93 594.93L768-145.38ZM480-216v-218.15L318.15-596q-35.92 35.69-51.03 75.38Q252-480.92 252-438.46q0 94 67 158.23Q386-216 480-216Z"></path>
    </symbol>
	
		<symbol id="light_mode-symbol" viewBox="0 -960 960 960">
        <path fill="currentColor" d="M480-360q50 0 85-35t35-85q0-50-35-85t-85-35q-50 0-85 35t-35 85q0 50 35 85t85 35Zm-.23 32q-63.62 0-107.69-44.3Q328-416.61 328-480.23q0-63.62 44.3-107.69Q416.61-632 480.23-632q63.62 0 107.69 44.3Q632-543.39 632-479.77q0 63.62-44.3 107.69Q543.39-328 479.77-328ZM216-464H68v-32h148v32Zm676 0H744v-32h148v32ZM464-744v-148h32v148h-32Zm0 676v-148h32v148h-32ZM282.85-655.85l-88.39-86.92 21.77-25.77 90.46 89.39-23.84 23.3Zm460.92 460.39-88.69-85.62 22.07-24.07 88.39 87.92-21.77 21.77Zm-89.92-481.69 88.92-86.39 21.77 19.77-85.39 91.46-25.3-24.84ZM191.46-216.23l89.62-86.69 20.54 20.07-84.16 90.16-26-23.54ZM480-480Z"></path>
    </symbol>
	
		<symbol id="line_weight-symbol" viewBox="0 -960 960 960">
        <path fill="currentColor" d="M220-229.23v-20h520v20H220Zm0-100v-40h520v40H220Zm0-120v-58.46h520v58.46H220Zm0-140v-141.54h520v141.54H220Z"></path>
    </symbol>
	
		<symbol id="location-arrow-solid-full-symbol" viewBox="0 0 640 640">
        <!--!Font Awesome Free 7.0.0 by @fontawesome - https://fontawesome.com License - https://fontawesome.com/license/free Copyright 2025 Fonticons, Inc.--><path fill="currentColor" d="M541.9 139.5C546.4 127.7 543.6 114.3 534.7 105.4C525.8 96.5 512.4 93.6 500.6 98.2L84.6 258.2C71.9 263 63.7 275.2 64 288.7C64.3 302.2 73.1 314.1 85.9 318.3L262.7 377.2L321.6 554C325.9 566.8 337.7 575.6 351.2 575.9C364.7 576.2 376.9 568 381.8 555.4L541.8 139.4z"></path>
    </symbol>
	
		<symbol id="lock-symbol" viewBox="0 0 24 24">
        <rect x="3" y="11" width="18" height="11" rx="2" ry="2"></rect><path d="M7 11V7a5 5 0 0 1 10 0v4"></path>
    </symbol>
	
		<symbol id="magnifying-glass-solid-full-symbol" viewBox="0 0 640 640">
        <!--!Font Awesome Free 7.0.0 by @fontawesome - https://fontawesome.com License - https://fontawesome.com/license/free Copyright 2025 Fonticons, Inc.--><path d="M480 272C480 317.9 465.1 360.3 440 394.7L566.6 521.4C579.1 533.9 579.1 554.2 566.6 566.7C554.1 579.2 533.8 579.2 521.3 566.7L394.7 440C360.3 465.1 317.9 480 272 480C157.1 480 64 386.9 64 272C64 157.1 157.1 64 272 64C386.9 64 480 157.1 480 272zM272 416C351.5 416 416 351.5 416 272C416 192.5 351.5 128 272 128C192.5 128 128 192.5 128 272C128 351.5 192.5 416 272 416z" fill="currentColor"></path>
    </symbol>
	
		<symbol id="minus-solid-full-symbol" viewBox="0 0 640 640">
        <!--!Font Awesome Free 7.0.1 by @fontawesome - https://fontawesome.com License - https://fontawesome.com/license/free Copyright 2025 Fonticons, Inc.--><path d="M96 320C96 302.3 110.3 288 128 288L512 288C529.7 288 544 302.3 544 320C544 337.7 529.7 352 512 352L128 352C110.3 352 96 337.7 96 320z"></path>
    </symbol>
	
		<symbol id="opacity-symbol" viewBox="0 -960 960 960">
        <path fill="currentColor" d="M480-160q-116.85 0-198.42-79.69Q200-319.38 200-436q0-55.77 22.31-105.35 22.31-49.57 59.38-88.96L480-824.62l198.31 194.31q37.07 39.39 59.38 88.96Q760-491.77 760-436q0 116.62-81.58 196.31Q596.85-160 480-160ZM242.77-400h474q12-72-13.89-123.77Q677-575.54 650-601.54l-170-168-170 168q-27 26-52.62 77.77Q231.77-472 242.77-400Z"></path>
    </symbol>
	
		<symbol id="palette-solid-full-symbol" viewBox="0 0 640 640">
        <!--!Font Awesome Free 7.0.0 by @fontawesome - https://fontawesome.com License - https://fontawesome.com/license/free Copyright 2025 Fonticons, Inc.--><path fill="currentColor" d="M576 320C576 320.9 576 321.8 576 322.7C575.6 359.2 542.4 384 505.9 384L408 384C381.5 384 360 405.5 360 432C360 435.4 360.4 438.7 361 441.9C363.1 452.1 367.5 461.9 371.8 471.8C377.9 485.6 383.9 499.3 383.9 513.8C383.9 545.6 362.3 574.5 330.5 575.8C327 575.9 323.5 576 319.9 576C178.5 576 63.9 461.4 63.9 320C63.9 178.6 178.6 64 320 64C461.4 64 576 178.6 576 320zM192 352C192 334.3 177.7 320 160 320C142.3 320 128 334.3 128 352C128 369.7 142.3 384 160 384C177.7 384 192 369.7 192 352zM192 256C209.7 256 224 241.7 224 224C224 206.3 209.7 192 192 192C174.3 192 160 206.3 160 224C160 241.7 174.3 256 192 256zM352 160C352 142.3 337.7 128 320 128C302.3 128 288 142.3 288 160C288 177.7 302.3 192 320 192C337.7 192 352 177.7 352 160zM448 256C465.7 256 480 241.7 480 224C480 206.3 465.7 192 448 192C430.3 192 416 206.3 416 224C416 241.7 430.3 256 448 256z"></path>
    </symbol>
	
		<symbol id="palette-symbol" viewBox="0 -960 960 960">
        <path fill="currentColor" d="M478.46-136q-70.54 0-132.84-26.92-62.31-26.93-109.04-73.66-46.73-46.73-73.66-109.42Q136-408.69 136-480q0-72.31 27.04-134.5t75.15-109.31q48.12-47.11 113.08-73.65Q416.23-824 489.54-824q68 0 128.81 23.15 60.8 23.16 106.42 63.62 45.61 40.46 72.42 95Q824-587.69 824-524.15q0 73.69-50.46 134.92Q723.08-328 634-328h-64.92q-24.16 0-43.62 17.31Q506-293.38 506-266.92q0 28.07 15 33.07T536-192q0 16.23-15.85 36.12Q504.31-136 478.46-136ZM480-480Zm-216 16q15.77 0 27.88-12.12Q304-488.23 304-504t-12.12-27.88Q279.77-544 264-544t-27.88 12.12Q224-519.77 224-504t12.12 27.88Q248.23-464 264-464Zm120-144q15.77 0 27.88-12.12Q424-632.23 424-648t-12.12-27.88Q399.77-688 384-688t-27.88 12.12Q344-663.77 344-648t12.12 27.88Q368.23-608 384-608Zm192 0q15.77 0 27.88-12.12Q616-632.23 616-648t-12.12-27.88Q591.77-688 576-688t-27.88 12.12Q536-663.77 536-648t12.12 27.88Q560.23-608 576-608Zm120 144q15.77 0 27.88-12.12Q736-488.23 736-504t-12.12-27.88Q711.77-544 696-544t-27.88 12.12Q656-519.77 656-504t12.12 27.88Q680.23-464 696-464ZM478.46-168q12.54 0 19.04-8.12 6.5-8.11 6.5-15.88 0-16-15-24.92-15-8.93-15-45.39 0-39.54 26.5-68.61Q527-360 565-360h69q75.23 0 116.62-51.77Q792-463.54 792-524.15q0-115.77-89.65-191.81Q612.69-792 489.54-792q-136.31 0-228.92 91Q168-610 168-480t91 221q91 91 219.46 91Z"></path>
    </symbol>
	
		<symbol id="paste-solid-full-symbol" viewBox="0 0 640 640">
        <!--!Font Awesome Free 7.0.0 by @fontawesome - https://fontawesome.com License - https://fontawesome.com/license/free Copyright 2025 Fonticons, Inc.--><path fill="currentColor" d="M128 64C92.7 64 64 92.7 64 128L64 448C64 483.3 92.7 512 128 512L240 512L240 288C240 226.1 290.1 176 352 176L416 176L416 128C416 92.7 387.3 64 352 64L128 64zM312 176L168 176C154.7 176 144 165.3 144 152C144 138.7 154.7 128 168 128L312 128C325.3 128 336 138.7 336 152C336 165.3 325.3 176 312 176zM352 224C316.7 224 288 252.7 288 288L288 512C288 547.3 316.7 576 352 576L512 576C547.3 576 576 547.3 576 512L576 346.5C576 329.5 569.3 313.2 557.3 301.2L498.8 242.7C486.8 230.7 470.5 224 453.5 224L352 224z"></path>
    </symbol>
	
		<symbol id="pen-solid-full-symbol" viewBox="0 0 640 640">
        <!--!Font Awesome Free 7.0.1 by @fontawesome - https://fontawesome.com License - https://fontawesome.com/license/free Copyright 2025 Fonticons, Inc.--><path d="M416.9 85.2L372 130.1L509.9 268L554.8 223.1C568.4 209.6 576 191.2 576 172C576 152.8 568.4 134.4 554.8 120.9L519.1 85.2C505.6 71.6 487.2 64 468 64C448.8 64 430.4 71.6 416.9 85.2zM338.1 164L122.9 379.1C112.2 389.8 104.4 403.2 100.3 417.8L64.9 545.6C62.6 553.9 64.9 562.9 71.1 569C77.3 575.1 86.2 577.5 94.5 575.2L222.3 539.7C236.9 535.6 250.2 527.9 261 517.1L476 301.9L338.1 164z"></path>
    </symbol>
	
		<symbol id="plus-solid-symbol" viewBox="0 0 448 512">
        <!--!Font Awesome Free 6.7.2 by @fontawesome - https://fontawesome.com License - https://fontawesome.com/license/free Copyright 2025 Fonticons, Inc.--><path fill="currentColor" d="M256 80c0-17.7-14.3-32-32-32s-32 14.3-32 32l0 144L48 224c-17.7 0-32 14.3-32 32s14.3 32 32 32l144 0 0 144c0 17.7 14.3 32 32 32s32-14.3 32-32l0-144 144 0c17.7 0 32-14.3 32-32s-14.3-32-32-32l-144 0 0-144z"></path>
    </symbol>
	
		<symbol id="rectangle-symbol" viewBox="0 -960 960 960">
        
    </symbol>
	
		<symbol id="rotate_90_degrees_cw-symbol" viewBox="0 -960 960 960">
        <path d="M448.46-120q-66.6 0-124.76-25.04-58.16-25.04-101.66-68.54-43.5-43.5-68.54-101.64-25.04-58.14-25.04-124.71 0-133.15 93.33-226.61Q315.13-760 448.46-760h52.16l-80.47-80.46 28.31-31.85L580.77-740 448.46-607.69l-28.31-31.85L500.62-720h-52.16q-117 0-198.5 81.5T168.46-440q0 117 81.5 198.5t198.5 81.5q35 0 69-8.5t65-25.5l28.77 28.77q-36.85 21.85-78.26 33.54Q491.56-120 448.46-120Zm240-136.92L505.38-440l183.08-183.08L871.54-440 688.46-256.92Zm0-57.08 126-126-126-126-126 126 126 126Zm0-126Z"></path>
    </symbol>
	
		<symbol id="rotate_auto-symbol" viewBox="0 -960 960 960">
        
	<path fill="currentColor" d="M327.38-320h37.85l41.23-104.31h149.08L596.77-320h38.92L493.54-680H468L327.38-320Zm90.93-136.31L478-617.08h4l61.23 160.77H418.31ZM480.13-120q-74.67 0-139.98-28.04-65.3-28.04-114.2-76.49-48.9-48.45-77.43-113.96Q120-403.99 120-478.46h40q0 66 25.38 124.11 25.39 58.12 68.89 101.62 43.5 43.5 101.75 68.61Q414.28-159 480-159q134 0 227-93t93-227q0-134-93-227t-227-93q-97.46 0-174.58 51.19-77.11 51.19-115.27 133.96h116v40H120V-760h40v119.23q43.46-89.15 128.38-144.19Q373.31-840 480-840q74.7 0 140.4 28.34t114.3 76.92q48.6 48.58 76.95 114.26Q840-554.81 840-480.13q0 74.67-28.34 140.41-28.34 65.73-76.92 114.36-48.58 48.63-114.26 76.99Q554.81-120 480.13-120Z"></path>
    </symbol>
	
		<symbol id="rounded_corner-symbol" viewBox="0 -960 960 960">
        
	<path fill="currentColor" d="M120-120v-80h80v80h-80Zm0-160v-80h80v80h-80Zm0-160v-80h80v80h-80Zm0-160v-80h80v80h-80Zm0-160v-80h80v80h-80Zm160 640v-80h80v80h-80Zm0-640v-80h80v80h-80Zm160 640v-80h80v80h-80Zm160 0v-80h80v80h-80Zm160 0v-80h80v80h-80Zm0-160v-80h80v80h-80Zm80-160h-80v-200q0-50-35-85t-85-35H440v-80h200q83 0 141.5 58.5T840-640v200Z"></path>
    </symbol>
	
		<symbol id="send-to-back-symbol" viewBox="0 0 24 24">
        <rect x="14" y="14" width="8" height="8" rx="2"></rect><rect x="2" y="2" width="8" height="8" rx="2"></rect><path d="M7 14v1a2 2 0 0 0 2 2h1"></path><path d="M14 7h1a2 2 0 0 1 2 2v1"></path>
    </symbol>
	
		<symbol id="settings-symbol" viewBox="0 0 24 24">
        <circle cx="12" cy="12" r="3"></circle><path d="M19.4 15a1.65 1.65 0 0 0 .33 1.82l.06.06a2 2 0 0 1 0 2.83 2 2 0 0 1-2.83 0l-.06-.06a1.65 1.65 0 0 0-1.82-.33 1.65 1.65 0 0 0-1 1.51V21a2 2 0 0 1-2 2 2 2 0 0 1-2-2v-.09A1.65 1.65 0 0 0 9 19.4a1.65 1.65 0 0 0-1.82.33l-.06.06a2 2 0 0 1-2.83 0 2 2 0 0 1 0-2.83l.06-.06a1.65 1.65 0 0 0 .33-1.82 1.65 1.65 0 0 0-1.51-1H3a2 2 0 0 1-2-2 2 2 0 0 1 2-2h.09A1.65 1.65 0 0 0 4.6 9a1.65 1.65 0 0 0-.33-1.82l-.06-.06a2 2 0 0 1 0-2.83 2 2 0 0 1 2.83 0l.06.06a1.65 1.65 0 0 0 1.82.33H9a1.65 1.65 0 0 0 1-1.51V3a2 2 0 0 1 2-2 2 2 0 0 1 2 2v.09a1.65 1.65 0 0 0 1 1.51 1.65 1.65 0 0 0 1.82-.33l.06-.06a2 2 0 0 1 2.83 0 2 2 0 0 1 0 2.83l-.06.06a1.65 1.65 0 0 0-.33 1.82V9a1.65 1.65 0 0 0 1.51 1H21a2 2 0 0 1 2 2 2 2 0 0 1-2 2h-.09a1.65 1.65 0 0 0-1.51 1z"></path>
    </symbol>
	
		<symbol id="sidebar-symbol" viewBox="0 0 24 24">
        
    <rect x="3" y="3" width="18" height="18" rx="2" ry="2" fill="none" stroke="currentColor"></rect>
    <line x1="9" y1="3" x2="9" y2="21" stroke="currentColor"></line>

    </symbol>
	
		<symbol id="target-symbol" viewBox="0 0 24 24">
        <circle cx="12" cy="12" r="10"></circle><circle cx="12" cy="12" r="6"></circle><circle cx="12" cy="12" r="2"></circle>
    </symbol>
	
		<symbol id="trash-icon-symbol" viewBox="0 -960 960 960">
        <path fill="currentColor" d="M280-120q-33 0-56.5-23.5T200-200v-520h-40v-80h200v-40h240v40h200v80h-40v520q0 33-23.5 56.5T680-120H280Zm400-600H280v520h400v-520ZM360-280h80v-360h-80v360Zm160 0h80v-360h-80v360ZM280-720v520-520Z"></path>
    </symbol>
	
		<symbol id="type-symbol" viewBox="0 0 24 24">
        
    <polyline points="4 7 4 4 20 4 20 7" fill="none" stroke="currentColor" stroke-width="2"></polyline>
    <line x1="9" y1="20" x2="15" y2="20" fill="none" stroke="currentColor" stroke-width="2"></line>
    <line x1="12" y1="4" x2="12" y2="20" fill="none" stroke="currentColor" stroke-width="2"></line>

    </symbol>
	
		<symbol id="unlock-symbol" viewBox="0 0 24 24">
        <rect x="3" y="11" width="18" height="11" rx="2" ry="2"></rect><path d="M7 11V7a5 5 0 0 1 9.9-1"></path>
    </symbol>
	
		<symbol id="upload-solid-full-symbol" viewBox="0 0 640 640">
        <!--!Font Awesome Free 7.2.0 by @fontawesome - https://fontawesome.com License - https://fontawesome.com/license/free Copyright 2026 Fonticons, Inc.--><path fill="currentColor" d="M352 173.3L352 384C352 401.7 337.7 416 320 416C302.3 416 288 401.7 288 384L288 173.3L246.6 214.7C234.1 227.2 213.8 227.2 201.3 214.7C188.8 202.2 188.8 181.9 201.3 169.4L297.3 73.4C309.8 60.9 330.1 60.9 342.6 73.4L438.6 169.4C451.1 181.9 451.1 202.2 438.6 214.7C426.1 227.2 405.8 227.2 393.3 214.7L352 173.3zM320 464C364.2 464 400 428.2 400 384L480 384C515.3 384 544 412.7 544 448L544 480C544 515.3 515.3 544 480 544L160 544C124.7 544 96 515.3 96 480L96 448C96 412.7 124.7 384 160 384L240 384C240 428.2 275.8 464 320 464zM464 488C477.3 488 488 477.3 488 464C488 450.7 477.3 440 464 440C450.7 440 440 450.7 440 464C440 477.3 450.7 488 464 488z"></path>
    </symbol>
	
		<symbol id="water_drop-symbol" viewBox="0 -960 960 960">
        <path fill="currentColor" d="M505.69-230.31q4.93-1 7.46-4.15 2.54-3.16 2.54-8.43 0-5.49-4.75-8.65-4.76-3.15-10.71-1.15-58 8-111.11-30.08Q336-320.85 327-380.85q-1-7.46-3.65-11.15-2.66-3.69-7.81-3.69-4.85 0-8.89 3.38-4.03 3.39-2.8 12.08 9.46 70.31 70.92 115.23t130.92 34.69ZM479.86-136q-112.94 0-192.4-79.54Q208-295.07 208-408q0-83.15 64.5-178.08Q337-681 480-811.69 626-674 689-580.08q63 93.93 63 172.08 0 112.93-79.6 192.46Q592.79-136 479.86-136Zm.14-32q100 0 170-70t70-170q0-68-54-149T480-769Q348-638 294-557t-54 149q0 100 70 170t170 70Zm0-305.85Z"></path>
    </symbol>
	
		<symbol id="x-solid-symbol" viewBox="0 0 384 512">
        <!--!Font Awesome Free 6.7.2 by @fontawesome - https://fontawesome.com License - https://fontawesome.com/license/free Copyright 2025 Fonticons, Inc.--><path fill="currentColor" d="M376.6 84.5c11.3-13.6 9.5-33.8-4.1-45.1s-33.8-9.5-45.1 4.1L192 206 56.6 43.5C45.3 29.9 25.1 28.1 11.5 39.4S-3.9 70.9 7.4 84.5L150.3 256 7.4 427.5c-11.3 13.6-9.5 33.8 4.1 45.1s33.8 9.5 45.1-4.1L192 306 327.4 468.5c11.3 13.6 31.5 15.4 45.1 4.1s15.4-31.5 4.1-45.1L233.7 256 376.6 84.5z"></path>
    </symbol>
	</svg>